<svg xmlns="http://www.w3.org/2000/svg" width="2500" height="1387" viewBox="0 0 2499.998 1386.695"><linearGradient id="a" x1="50.107%" x2="50.107%" y1="2.721%" y2="98.004%"><stop offset="0" stop-color="#f80"/><stop offset="1" stop-color="#f30"/></linearGradient><path fill="url(#a)" d="M0 1137.737c0 31.024 11.247 54.481 33.737 70.382q33.737 23.847 72.126 16.868 36.061-6.98 50.607-25.593 14.54-18.613 14.542-61.657V800.372q.001-36.067-25.012-61.075-25.008-25.013-61.074-25.012-34.9-.001-59.912 25.012Q.001 764.305 0 800.372zm267.566 144.253c0 22.495 7.95 39.36 23.848 50.608q23.851 16.87 61.075 16.868 38.389-.001 62.238-16.868t23.849-50.608V495.58q-.002-34.901-25.012-59.912-25.012-25.01-61.075-25.011-34.901.002-59.911 25.011-25.013 25.013-25.012 59.912zm266.403 37.227q0 33.737 24.43 50.607 24.428 16.868 62.822 16.869 37.225 0 61.072-16.869 23.85-16.87 23.851-50.607V601.442q-.001-36.063-25.012-61.657-25.011-25.59-59.911-25.59-36.065 0-61.657 25.59-25.592 25.594-25.593 61.657v717.775zm267.566 3.49q0 63.986 86.086 63.986 86.085 0 86.084-63.986V159.377q0-97.72-59.33-110.517-38.39-9.307-75.616 22.103t-37.227 88.413v1163.331zm272.222 33.737V90.74q0-60.492 36.063-72.127Q1187.761.001 1264.543 0c118.657 0 229.176 27.92 331.547 83.76q153.561 83.76 248.37 228.594c63.21 96.56 99.854 203.001 109.936 319.337q70.961-30.247 151.23-30.247 162.868 0 278.618 115.17 115.753 115.172 115.754 276.875-.001 162.867-115.754 278.036-115.749 115.17-277.455 115.17l-1012.097-1.163q-10.474-3.492-15.708-12.797c-5.234-9.305-5.227-11.638-5.227-16.291"/></svg>