<svg xmlns="http://www.w3.org/2000/svg" xml:space="preserve" baseProfile="tiny" overflow="visible" version="1.2" viewBox="0 0 2500 2495"><g fill="#25F4EE"><path d="M1036.6 1061.9v-75.4c-26.2-4.1-52.6-6.4-79.1-6.8-256.5-.5-483.5 165.6-560.6 410.2s13.9 510.9 224.4 657.4c-220.8-236.4-208.2-607 28.1-827.8 105.3-98.3 243.2-154.4 387.2-157.6"/><path d="M1050.8 1915.8c143.4-.2 261.2-113.1 267.5-256.4V381h233.5c-4.8-26.7-7-53.8-6.8-80.9h-319.4v1277.1c-5.3 144-123.5 258-267.5 258.3-43-.3-85.4-11-123.6-30.9 50.3 69.5 130.6 110.8 216.3 111.2M1988 814.7v-71c-86 0-170-25.4-241.6-72.9 62.7 72.9 147.6 123.5 241.6 143.9"/></g><path fill="#FE2C55" d="M1746.5 670.8c-70.5-80.3-109.4-183.5-109.3-290.4h-85.3c22.2 119.5 92.6 224.5 194.6 290.4m-789 628.4c-148.1.8-267.5 121.4-266.8 269.5.5 99.1 55.6 189.8 143.2 235.9-86.6-119.6-59.9-286.9 59.7-373.6 45.7-33.1 100.7-50.9 157.2-50.8 26.8.3 53.5 4.5 79.1 12.4v-325c-26.1-3.9-52.6-6-79.1-6.2h-14.2v247.2c-25.8-7.1-52.5-10.2-79.1-9.4"/><path fill="#FE2C55" d="M1988 814.7v247.2c-159.1-.3-314.1-50.7-443-144v649.3c-.7 324-263.5 586.3-587.5 586.3-120.3.2-237.8-36.9-336.1-106.3 220.5 237.1 591.5 250.7 828.7 30.2 119.3-110.9 187.1-266.4 187.1-429.3v-647.5c129.3 92.6 284.5 142.3 443.6 142.1v-318c-31.3-.2-62.3-3.5-92.8-10"/><path fill="#FFF" d="M1545 1567.3V918c129.3 92.7 284.5 142.4 443.6 142.1V812.9c-94-19.9-179-69.7-242.2-142.1-102-66-172.4-171-194.6-290.4h-233.5v1278.9c-6.1 148-130.9 263-278.9 257-82-3.3-158-44.1-206.2-110.5-131-69-181.3-231.1-112.3-362.2 46.1-87.7 136.9-142.7 235.9-143.2 26.8.3 53.5 4.4 79.1 12.3V1062c-323.4 5.5-581.2 275.9-575.7 599.3 2.5 146.5 59.7 286.7 160.5 393 99.3 67.1 216.9 101.8 336.7 99.5 324.1-.1 586.9-262.5 587.6-586.5"/></svg>